<svg width="25" height="25" viewBox="0 0 25 25" fill="none" xmlns="http://www.w3.org/2000/svg">
<path d="M23.7734 7.1001C25.1171 9.90518 25.3667 13.1105 24.4735 16.0897C23.5803 19.069 21.6084 21.6083 18.9431 23.2115C16.2778 24.8147 13.1106 25.3666 10.0601 24.7595C7.00958 24.1524 4.29501 22.4298 2.44665 19.9283C0.598302 17.4268 -0.251045 14.3261 0.0645375 11.2318C0.38012 8.13757 1.83796 5.27213 4.15326 3.19526C6.46856 1.11839 9.475 -0.0207081 12.5852 0.000500826C15.6955 0.0217097 18.6861 1.2017 20.9729 3.30995L24.1366 0.146293C24.1829 0.0999121 24.238 0.0631211 24.2986 0.0380202C24.3592 0.0129193 24.4242 0 24.4897 0C24.5553 0 24.6203 0.0129193 24.6809 0.0380202C24.7415 0.0631211 24.7965 0.0999121 24.8429 0.146293C24.8893 0.192673 24.9261 0.247734 24.9512 0.308333C24.9763 0.368932 24.9892 0.433882 24.9892 0.499474C24.9892 0.565066 24.9763 0.630015 24.9512 0.690614C24.9261 0.751213 24.8893 0.806275 24.8429 0.852656L12.8621 12.8334C12.7684 12.927 12.6414 12.9797 12.5089 12.9797C12.3765 12.9797 12.2494 12.927 12.1557 12.8334C12.0621 12.7397 12.0095 12.6127 12.0095 12.4802C12.0095 12.3477 12.0621 12.2207 12.1557 12.127L16.0246 8.25823C15.0543 7.45065 13.8353 7.00204 12.573 6.98795C11.3107 6.97385 10.082 7.39513 9.09394 8.18086C8.10586 8.96658 7.41868 10.0688 7.1481 11.3018C6.87753 12.5349 7.04007 13.8235 7.60838 14.9508C8.17669 16.078 9.11605 16.975 10.2683 17.4908C11.4206 18.0065 12.7153 18.1095 13.9346 17.7824C15.1539 17.4552 16.2233 16.718 16.9626 15.6948C17.702 14.6715 18.0662 13.4248 17.9939 12.1644C17.9901 12.0989 17.9993 12.0332 18.0209 11.9712C18.0425 11.9092 18.0761 11.8521 18.1198 11.8031C18.1635 11.754 18.2164 11.7141 18.2755 11.6855C18.3347 11.657 18.3988 11.6403 18.4644 11.6365C18.53 11.6328 18.5956 11.642 18.6576 11.6636C18.7196 11.6852 18.7768 11.7188 18.8258 11.7625C18.8748 11.8061 18.9147 11.8591 18.9433 11.9182C18.9719 11.9773 18.9885 12.0415 18.9923 12.107C19.0785 13.6004 18.646 15.0777 17.7682 16.289C16.8904 17.5002 15.6211 18.371 14.1751 18.754C12.7291 19.137 11.1952 19.0087 9.83289 18.3909C8.47059 17.773 7.36356 16.7035 6.69914 15.3632C6.03472 14.023 5.8537 12.4944 6.18671 11.0361C6.51971 9.57778 7.3463 8.27927 8.52661 7.36029C9.70691 6.44132 11.1685 5.9583 12.6639 5.99299C14.1594 6.02767 15.597 6.57792 16.7334 7.55062L20.2703 4.01506C18.0551 1.99953 15.1401 0.929283 12.147 1.03261C9.1539 1.13594 6.31964 2.40466 4.24877 4.56816C2.1779 6.73166 1.03434 9.61867 1.06202 12.6134C1.08969 15.6081 2.28642 18.4735 4.39692 20.5984C6.31348 22.5078 8.84275 23.6791 11.5386 23.9058C14.2345 24.1324 16.9239 23.3998 19.1323 21.8372C21.3408 20.2746 22.9265 17.9823 23.6099 15.3646C24.2932 12.747 24.0302 9.97211 22.8673 7.52941C22.8372 7.47002 22.8193 7.40521 22.8147 7.33879C22.81 7.27238 22.8187 7.2057 22.8401 7.14268C22.8616 7.07966 22.8955 7.02158 22.9398 6.97185C22.984 6.92212 23.0378 6.88175 23.0979 6.85311C23.158 6.82448 23.2233 6.80815 23.2898 6.8051C23.3563 6.80205 23.4227 6.81233 23.4852 6.83535C23.5477 6.85836 23.6049 6.89364 23.6535 6.93911C23.7022 6.98458 23.7412 7.03931 23.7684 7.1001H23.7734Z" fill="#377A95"/>
</svg>
